<svg width="200mm" height="100mm" viewBox="0 0 755.906 377.953" xml:space="preserve" xmlns="http://www.w3.org/2000/svg"><path style="font-size:96px;font-family:&quot;Peace Sans&quot;;-inkscape-font-specification:&quot;Peace Sans&quot;;white-space:pre;fill:#38bdf8;stroke-width:1.25596" d="M76.5 117.765v24.114h8.44v36.172h28.937v-36.172h10.852v-24.114h-10.852v-1.809c0-4.823 2.412-7.234 6.03-7.234 2.41 0 4.822.602 4.822.602V85.21s-4.823-1.206-10.852-1.206c-18.085 0-28.937 10.852-28.937 31.952v1.809zm57.875 60.286h28.937V88.827h-28.937zm62.698 1.808c10.851 0 15.674-9.043 15.674-9.043l2.411 7.235h27.732v-63.904h-28.937v33.76c0 4.824-2.412 7.235-4.823 7.235s-4.823-2.411-4.823-7.234v-33.76H175.37v33.76c0 22.306 9.645 31.951 21.703 31.951m89.223-67.52c-18.689 0-33.76 15.071-33.76 33.76s15.071 33.76 35.569 33.76c16.277 0 25.32-9.645 25.32-9.645l-10.249-16.278s-4.823 4.823-10.851 4.823c-9.646 0-10.852-6.631-10.852-6.631h38.584v-6.029c0-18.689-15.072-33.76-33.76-33.76m-5.426 28.334c0-4.823 2.412-7.234 5.426-7.234s5.426 2.411 5.426 7.234zm93.444-28.334c-10.851 0-15.674 9.043-15.674 9.043l-2.412-7.235h-27.731v63.904h28.937v-33.76c0-4.823 2.412-7.235 4.823-7.235s4.823 2.412 4.823 7.235v33.76h28.937v-33.76c0-22.306-9.646-31.952-21.703-31.952m60.286 33.76c0-5.426 3.618-9.043 9.646-9.043s10.852 4.823 10.852 4.823l12.057-19.292s-9.646-10.248-27.129-10.248c-20.497 0-35.569 15.071-35.569 33.76s15.072 33.76 35.57 33.76c17.482 0 27.128-10.248 27.128-10.248l-12.057-19.292s-4.823 4.823-10.852 4.823c-6.028 0-9.646-3.617-9.646-9.043m53.052 36.775c-1.085 3.014-3.617 5.425-6.631 5.425-2.412 0-4.22-1.205-4.22-1.205l-6.632 21.1s7.235 4.823 15.675 4.823c15.071 0 23.511-8.44 30.746-30.143l22.908-68.727h-30.143l-5.425 33.76-5.426-33.76H468.36l21.1 63.904z" aria-label="fluency"/><path style="font-size:96px;font-family:&quot;Peace Sans&quot;;-inkscape-font-specification:&quot;Peace Sans&quot;;white-space:pre;fill:#38bdf8;stroke-width:1.25596" d="M400.94 266.175v10.249c0 21.1 10.852 31.952 28.937 31.952 6.029 0 10.852-1.206 10.852-1.206v-24.115s-2.412.603-4.823.603c-3.617 0-6.029-2.411-6.029-7.234v-10.249h10.852v-24.114h-10.852v-20.498H400.94v20.498h-8.44v24.114zm81.99-16.88-2.412-7.234h-27.732v63.903h28.937v-26.526c0-8.44 4.823-13.263 10.852-13.263 3.617 0 8.44 2.412 8.44 2.412l4.823-26.526s-3.617-1.809-8.44-1.809c-9.646 0-14.469 9.043-14.469 9.043m53.654-9.043c-16.277 0-25.32 9.646-25.32 9.646l10.248 16.277s4.823-4.823 10.852-4.823c9.646 0 10.851 6.632 10.851 6.632h-9.645c-20.498 0-28.938 8.44-28.938 19.894 0 11.455 8.44 19.895 21.703 19.895 10.852 0 15.675-9.043 15.675-9.043l2.411 7.234h27.732v-31.952c0-18.688-15.072-33.76-35.57-33.76m.603 48.229c-1.809 0-3.617-1.809-3.617-3.617 0-3.617 3.014-6.632 9.645-6.632 0 7.235-3.014 10.249-6.028 10.249m45.817-46.42v63.903h28.938v-63.903zm0-7.235h28.938v-22.909h-28.938zM624 305.964h28.937V216.74H624z" aria-label="trail"/><path style="fill:#38bdf8;stroke-width:3.63586" d="M956.946 567.286a77.154 56.5 0 0 1-77.154 56.5 77.154 56.5 0 0 1-77.154-56.5 77.154 56.5 0 0 1 77.154-56.5 77.154 56.5 0 0 1 77.154 56.5" transform="translate(11.053 -237.841)scale(.67354)"/><path style="fill:#38bdf8;fill-opacity:1;stroke-width:3.52159" d="M826.061 598.84c-.436 1.97-.788 3.973-1.275 5.921-2.253 3.283-4.546 6.12-7.07 9.368-2.162 2.594-3.992 4.455-6.354 6.383 2.702.454 5.363.887 8.136 1.137 4.284.032 7.646.228 11.552-.318 5.08-.807 9.161-2.404 13.443-3.833 2.769-1.68 4.994-3.692 7.762-5.372" transform="translate(11.053 -237.841)scale(.67354)"/><text xml:space="preserve" style="font-style:normal;font-variant:normal;font-weight:400;font-stretch:normal;font-size:50.6383px;font-family:&quot;Peace Sans&quot;;-inkscape-font-specification:&quot;Peace Sans&quot;;text-align:start;writing-mode:lr-tb;direction:ltr;text-anchor:start;fill:#fef08a;fill-opacity:1;stroke-width:.527482" x="746.493" y="534.782" transform="translate(-158.977 -377.371)"><tspan x="746.493" y="534.782" style="stroke-width:.527482">a</tspan></text><path style="fill:#fef08a;fill-opacity:1;stroke-width:3.63586" d="M1012.817 552.583a77.154 56.5 0 0 1-77.155 56.5 77.154 56.5 0 0 1-77.154-56.5 77.154 56.5 0 0 1 77.154-56.5 77.154 56.5 0 0 1 77.155 56.5" transform="matrix(-.6735 0 0 .6735 955.329 -103.973)"/><path style="fill:#fef08a;fill-opacity:1;stroke-width:3.52159" d="M881.931 584.137c-.435 1.97-.788 3.973-1.275 5.921-2.252 3.283-4.545 6.12-7.069 9.369-2.163 2.593-3.992 4.454-6.355 6.382 2.702.454 5.363.887 8.136 1.138 4.285.031 7.646.227 11.552-.319 5.08-.807 9.162-2.404 13.443-3.832 2.77-1.68 4.994-3.693 7.763-5.373" transform="matrix(-.6735 0 0 .6735 955.329 -103.973)"/><text xml:space="preserve" style="font-style:normal;font-variant:normal;font-weight:400;font-stretch:normal;font-size:49.3725px;font-family:&quot;Peace Sans&quot;;-inkscape-font-specification:&quot;Peace Sans&quot;;text-align:start;writing-mode:lr-tb;direction:ltr;text-anchor:start;fill:#38bdf8;fill-opacity:1;stroke-width:.896554" x="455.311" y="654.323" transform="translate(-168.196 -386.8)scale(1.02564)"><tspan x="455.311" y="654.323" style="font-size:49.3725px;stroke-width:.896554">あ</tspan></text></svg>